<svg xmlns="http://www.w3.org/2000/svg" xmlns:xlink="http://www.w3.org/1999/xlink" width="500" zoomAndPan="magnify" viewBox="0 0 375 374.999991" height="500" preserveAspectRatio="xMidYMid meet" version="1.0"><defs><g/><clipPath id="41afccf823"><path d="M 125.898438 116.238281 L 248.898438 116.238281 L 248.898438 203.988281 L 125.898438 203.988281 Z M 125.898438 116.238281 " clip-rule="nonzero"/></clipPath></defs><g clip-path="url(#41afccf823)"><path fill="#152039" d="M 147.257812 144.816406 L 147.257812 197.820312 L 136.269531 197.820312 L 136.269531 199.898438 C 140.601562 199.898438 144.929688 199.898438 149.261719 199.898438 L 149.261719 146.050781 L 197.289062 119.164062 L 197.289062 130.722656 L 157.339844 153.066406 L 157.339844 199.898438 L 179.320312 199.898438 L 179.320312 143.128906 L 197.289062 133.0625 L 197.289062 199.898438 L 238.527344 199.898438 L 238.527344 197.820312 L 227.605469 197.820312 L 227.605469 145.53125 L 198.324219 116.238281 Z M 248.804688 201.910156 L 125.992188 201.910156 L 125.992188 203.988281 C 166.90625 203.988281 207.890625 203.988281 248.804688 203.988281 Z M 199.355469 120.136719 L 225.535156 146.378906 L 225.535156 197.820312 L 199.355469 197.820312 Z M 177.25 197.820312 L 159.410156 197.820312 L 159.410156 154.300781 L 177.25 144.296875 Z M 177.25 197.820312 " fill-opacity="1" fill-rule="evenodd"/></g><path fill="#152039" d="M 201.359375 125.136719 L 201.359375 195.804688 L 223.46875 195.804688 L 223.46875 147.222656 Z M 201.359375 125.136719 " fill-opacity="1" fill-rule="evenodd"/><g fill="#152039" fill-opacity="1"><g transform="translate(95.828561, 236.943383)"><g><path d="M 2 -15.21875 L 8.0625 -15.21875 C 9.976562 -15.21875 11.460938 -14.765625 12.515625 -13.859375 C 13.566406 -12.953125 14.09375 -11.675781 14.09375 -10.03125 C 14.09375 -8.300781 13.566406 -6.960938 12.515625 -6.015625 C 11.460938 -5.066406 9.976562 -4.59375 8.0625 -4.59375 L 4.5625 -4.59375 L 4.5625 0 L 2 0 Z M 4.5625 -12.921875 L 4.5625 -6.890625 L 7.953125 -6.890625 C 10.410156 -6.890625 11.640625 -7.914062 11.640625 -9.96875 C 11.640625 -11.9375 10.410156 -12.921875 7.953125 -12.921875 Z M 4.5625 -12.921875 "/></g></g></g><g fill="#152039" fill-opacity="1"><g transform="translate(111.11893, 236.943383)"><g><path d="M 4.5625 0 L 2 0 L 2 -15.21875 L 4.5625 -15.21875 Z M 4.5625 0 "/></g></g></g><g fill="#152039" fill-opacity="1"><g transform="translate(118.340037, 236.943383)"><g><path d="M 9.046875 -7.921875 L 14.59375 0 L 11.53125 0 L 7.421875 -5.734375 L 3.328125 0 L 0.328125 0 L 5.875 -7.8125 L 0.71875 -15.21875 L 3.703125 -15.21875 L 7.421875 -9.9375 L 11.15625 -15.21875 L 14.15625 -15.21875 Z M 9.046875 -7.921875 "/></g></g></g><g fill="#152039" fill-opacity="1"><g transform="translate(134.043653, 236.943383)"><g><path d="M 12.875 -12.921875 L 4.5625 -12.921875 L 4.5625 -8.8125 L 12 -8.8125 L 12 -6.5 L 4.5625 -6.5 L 4.5625 -2.3125 L 13.140625 -2.3125 L 13.140625 0 L 2 0 L 2 -15.21875 L 12.875 -15.21875 Z M 12.875 -12.921875 "/></g></g></g><g fill="#152039" fill-opacity="1"><g transform="translate(148.964276, 236.943383)"><g><path d="M 4.5625 -2.328125 L 11.15625 -2.328125 L 11.15625 0 L 2 0 L 2 -15.21875 L 4.5625 -15.21875 Z M 4.5625 -2.328125 "/></g></g></g><g fill="#152039" fill-opacity="1"><g transform="translate(161.231392, 236.943383)"><g/></g></g><g fill="#152039" fill-opacity="1"><g transform="translate(167.495498, 236.943383)"><g><path d="M 2 -15.21875 L 8.609375 -15.21875 C 10.191406 -15.21875 11.4375 -14.878906 12.34375 -14.203125 C 13.257812 -13.535156 13.71875 -12.609375 13.71875 -11.421875 C 13.71875 -10.566406 13.476562 -9.835938 13 -9.234375 C 12.519531 -8.628906 11.867188 -8.226562 11.046875 -8.03125 C 12.066406 -7.851562 12.863281 -7.421875 13.4375 -6.734375 C 14.019531 -6.054688 14.3125 -5.203125 14.3125 -4.171875 C 14.3125 -2.867188 13.816406 -1.847656 12.828125 -1.109375 C 11.847656 -0.367188 10.492188 0 8.765625 0 L 2 0 Z M 4.5625 -12.9375 L 4.5625 -8.921875 L 8.484375 -8.921875 C 9.296875 -8.921875 9.929688 -9.097656 10.390625 -9.453125 C 10.859375 -9.816406 11.09375 -10.316406 11.09375 -10.953125 C 11.09375 -11.597656 10.863281 -12.085938 10.40625 -12.421875 C 9.945312 -12.765625 9.304688 -12.9375 8.484375 -12.9375 Z M 4.5625 -6.65625 L 4.5625 -2.28125 L 8.484375 -2.28125 C 9.492188 -2.28125 10.28125 -2.472656 10.84375 -2.859375 C 11.40625 -3.242188 11.6875 -3.789062 11.6875 -4.5 C 11.6875 -5.164062 11.398438 -5.691406 10.828125 -6.078125 C 10.265625 -6.460938 9.484375 -6.65625 8.484375 -6.65625 Z M 4.5625 -6.65625 "/></g></g></g><g fill="#152039" fill-opacity="1"><g transform="translate(183.503618, 236.943383)"><g><path d="M 14.9375 -15.21875 L 14.9375 -6.3125 C 14.9375 -4.320312 14.347656 -2.753906 13.171875 -1.609375 C 12.003906 -0.460938 10.390625 0.109375 8.328125 0.109375 C 6.265625 0.109375 4.644531 -0.460938 3.46875 -1.609375 C 2.289062 -2.753906 1.703125 -4.320312 1.703125 -6.3125 L 1.703125 -15.21875 L 4.265625 -15.21875 L 4.265625 -6.3125 C 4.265625 -5.03125 4.628906 -4.023438 5.359375 -3.296875 C 6.085938 -2.566406 7.085938 -2.203125 8.359375 -2.203125 C 9.597656 -2.203125 10.578125 -2.5625 11.296875 -3.28125 C 12.015625 -4.007812 12.375 -5.019531 12.375 -6.3125 L 12.375 -15.21875 Z M 14.9375 -15.21875 "/></g></g></g><g fill="#152039" fill-opacity="1"><g transform="translate(200.773244, 236.943383)"><g><path d="M 4.5625 0 L 2 0 L 2 -15.21875 L 4.5625 -15.21875 Z M 4.5625 0 "/></g></g></g><g fill="#152039" fill-opacity="1"><g transform="translate(207.994351, 236.943383)"><g><path d="M 4.5625 -2.328125 L 11.15625 -2.328125 L 11.15625 0 L 2 0 L 2 -15.21875 L 4.5625 -15.21875 Z M 4.5625 -2.328125 "/></g></g></g><g fill="#152039" fill-opacity="1"><g transform="translate(220.261467, 236.943383)"><g><path d="M 2 -15.21875 L 8.25 -15.21875 C 10.519531 -15.21875 12.394531 -14.5 13.875 -13.0625 C 15.363281 -11.632812 16.109375 -9.816406 16.109375 -7.609375 C 16.109375 -5.410156 15.363281 -3.59375 13.875 -2.15625 C 12.382812 -0.71875 10.484375 0 8.171875 0 L 2 0 Z M 4.5625 -12.921875 L 4.5625 -2.3125 L 8.3125 -2.3125 C 9.800781 -2.3125 11.039062 -2.804688 12.03125 -3.796875 C 13.03125 -4.785156 13.53125 -6.046875 13.53125 -7.578125 C 13.53125 -9.117188 13.019531 -10.394531 12 -11.40625 C 10.976562 -12.414062 9.710938 -12.921875 8.203125 -12.921875 Z M 4.5625 -12.921875 "/></g></g></g><g fill="#152039" fill-opacity="1"><g transform="translate(237.770342, 236.943383)"><g><path d="M 4.5625 0 L 2 0 L 2 -15.21875 L 4.5625 -15.21875 Z M 4.5625 0 "/></g></g></g><g fill="#152039" fill-opacity="1"><g transform="translate(244.991449, 236.943383)"><g><path d="M 15.203125 0 L 12.6875 0 L 4.5625 -10.921875 L 4.5625 0 L 2 0 L 2 -15.21875 L 4.53125 -15.21875 L 12.6875 -4.28125 L 12.6875 -15.21875 L 15.203125 -15.21875 Z M 15.203125 0 "/></g></g></g><g fill="#152039" fill-opacity="1"><g transform="translate(262.870072, 236.943383)"><g><path d="M 12.421875 -7.484375 L 14.65625 -7.484375 L 14.65625 -1.875 C 13.875 -1.28125 12.945312 -0.800781 11.875 -0.4375 C 10.8125 -0.0703125 9.769531 0.109375 8.75 0.109375 C 6.5 0.109375 4.597656 -0.628906 3.046875 -2.109375 C 1.503906 -3.597656 0.734375 -5.429688 0.734375 -7.609375 C 0.734375 -9.785156 1.515625 -11.609375 3.078125 -13.078125 C 4.648438 -14.554688 6.585938 -15.296875 8.890625 -15.296875 C 9.960938 -15.296875 11.015625 -15.101562 12.046875 -14.71875 C 13.085938 -14.332031 13.988281 -13.8125 14.75 -13.15625 L 13.296875 -11.265625 C 12.046875 -12.421875 10.578125 -13 8.890625 -13 C 7.335938 -13 6.023438 -12.476562 4.953125 -11.4375 C 3.878906 -10.394531 3.34375 -9.117188 3.34375 -7.609375 C 3.34375 -6.085938 3.882812 -4.804688 4.96875 -3.765625 C 6.050781 -2.722656 7.367188 -2.203125 8.921875 -2.203125 C 10.085938 -2.203125 11.253906 -2.546875 12.421875 -3.234375 Z M 12.421875 -7.484375 "/></g></g></g><g fill="#152039" fill-opacity="1"><g transform="translate(120.51308, 255.59178)"><g><path d="M 5.359375 -9.359375 C 6.015625 -9.359375 6.65625 -9.226562 7.28125 -8.96875 C 7.90625 -8.71875 8.441406 -8.367188 8.890625 -7.921875 L 7.96875 -6.78125 C 7.632812 -7.144531 7.234375 -7.429688 6.765625 -7.640625 C 6.304688 -7.847656 5.84375 -7.953125 5.375 -7.953125 C 4.445312 -7.953125 3.660156 -7.632812 3.015625 -7 C 2.367188 -6.375 2.046875 -5.601562 2.046875 -4.6875 C 2.046875 -3.757812 2.367188 -2.976562 3.015625 -2.34375 C 3.660156 -1.707031 4.445312 -1.390625 5.375 -1.390625 C 6.34375 -1.390625 7.207031 -1.757812 7.96875 -2.5 L 8.90625 -1.46875 C 8.425781 -1 7.863281 -0.625 7.21875 -0.34375 C 6.582031 -0.0703125 5.941406 0.0625 5.296875 0.0625 C 3.929688 0.0625 2.78125 -0.390625 1.84375 -1.296875 C 0.914062 -2.203125 0.453125 -3.328125 0.453125 -4.671875 C 0.453125 -5.992188 0.921875 -7.101562 1.859375 -8 C 2.804688 -8.90625 3.972656 -9.359375 5.359375 -9.359375 Z M 5.359375 -9.359375 "/></g></g></g><g fill="#152039" fill-opacity="1"><g transform="translate(132.086569, 255.59178)"><g><path d="M 1.875 -8 C 2.820312 -8.90625 3.992188 -9.359375 5.390625 -9.359375 C 6.785156 -9.359375 7.957031 -8.90625 8.90625 -8 C 9.851562 -7.101562 10.328125 -5.988281 10.328125 -4.65625 C 10.328125 -3.320312 9.851562 -2.203125 8.90625 -1.296875 C 7.957031 -0.390625 6.785156 0.0625 5.390625 0.0625 C 3.992188 0.0625 2.820312 -0.390625 1.875 -1.296875 C 0.925781 -2.203125 0.453125 -3.320312 0.453125 -4.65625 C 0.453125 -5.988281 0.925781 -7.101562 1.875 -8 Z M 5.40625 -7.953125 C 4.476562 -7.953125 3.6875 -7.632812 3.03125 -7 C 2.375 -6.363281 2.046875 -5.582031 2.046875 -4.65625 C 2.046875 -3.738281 2.375 -2.957031 3.03125 -2.3125 C 3.695312 -1.664062 4.488281 -1.34375 5.40625 -1.34375 C 6.320312 -1.34375 7.101562 -1.664062 7.75 -2.3125 C 8.394531 -2.957031 8.71875 -3.738281 8.71875 -4.65625 C 8.71875 -5.582031 8.394531 -6.363281 7.75 -7 C 7.101562 -7.632812 6.320312 -7.953125 5.40625 -7.953125 Z M 5.40625 -7.953125 "/></g></g></g><g fill="#152039" fill-opacity="1"><g transform="translate(145.163042, 255.59178)"><g><path d="M 9.3125 0 L 7.765625 0 L 2.796875 -6.6875 L 2.796875 0 L 1.21875 0 L 1.21875 -9.3125 L 2.765625 -9.3125 L 7.765625 -2.625 L 7.765625 -9.3125 L 9.3125 -9.3125 Z M 9.3125 0 "/></g></g></g><g fill="#152039" fill-opacity="1"><g transform="translate(158.000105, 255.59178)"><g><path d="M 4.28125 -9.390625 C 5.488281 -9.390625 6.578125 -9.066406 7.546875 -8.421875 L 6.890625 -7.046875 C 5.941406 -7.617188 5.035156 -7.90625 4.171875 -7.90625 C 3.703125 -7.90625 3.332031 -7.820312 3.0625 -7.65625 C 2.789062 -7.488281 2.65625 -7.25 2.65625 -6.9375 C 2.65625 -6.625 2.773438 -6.359375 3.015625 -6.140625 C 3.265625 -5.921875 3.578125 -5.757812 3.953125 -5.65625 C 4.328125 -5.5625 4.726562 -5.4375 5.15625 -5.28125 C 5.59375 -5.125 6 -4.957031 6.375 -4.78125 C 6.75 -4.613281 7.054688 -4.34375 7.296875 -3.96875 C 7.546875 -3.601562 7.671875 -3.160156 7.671875 -2.640625 C 7.671875 -1.816406 7.34375 -1.160156 6.6875 -0.671875 C 6.039062 -0.191406 5.195312 0.046875 4.15625 0.046875 C 3.445312 0.046875 2.757812 -0.0820312 2.09375 -0.34375 C 1.425781 -0.613281 0.84375 -0.972656 0.34375 -1.421875 L 1.03125 -2.78125 C 1.5 -2.34375 2.015625 -2.003906 2.578125 -1.765625 C 3.140625 -1.535156 3.675781 -1.421875 4.1875 -1.421875 C 4.726562 -1.421875 5.148438 -1.519531 5.453125 -1.71875 C 5.765625 -1.925781 5.921875 -2.207031 5.921875 -2.5625 C 5.921875 -2.875 5.796875 -3.140625 5.546875 -3.359375 C 5.296875 -3.578125 4.984375 -3.738281 4.609375 -3.84375 C 4.242188 -3.945312 3.84375 -4.070312 3.40625 -4.21875 C 2.96875 -4.363281 2.5625 -4.515625 2.1875 -4.671875 C 1.820312 -4.835938 1.515625 -5.101562 1.265625 -5.46875 C 1.015625 -5.832031 0.890625 -6.273438 0.890625 -6.796875 C 0.890625 -7.578125 1.195312 -8.203125 1.8125 -8.671875 C 2.4375 -9.148438 3.257812 -9.390625 4.28125 -9.390625 Z M 4.28125 -9.390625 "/></g></g></g><g fill="#152039" fill-opacity="1"><g transform="translate(168.576048, 255.59178)"><g><path d="M 7.59375 -7.90625 L 4.625 -7.90625 L 4.625 0 L 3.0625 0 L 3.0625 -7.90625 L 0.125 -7.90625 L 0.125 -9.3125 L 7.59375 -9.3125 Z M 7.59375 -7.90625 "/></g></g></g><g fill="#152039" fill-opacity="1"><g transform="translate(178.58006, 255.59178)"><g><path d="M 7.140625 0 L 5.4375 -2.828125 C 5.34375 -2.816406 5.195312 -2.8125 5 -2.8125 L 2.796875 -2.8125 L 2.796875 0 L 1.21875 0 L 1.21875 -9.3125 L 5 -9.3125 C 6.195312 -9.3125 7.125 -9.035156 7.78125 -8.484375 C 8.4375 -7.929688 8.765625 -7.148438 8.765625 -6.140625 C 8.765625 -5.390625 8.597656 -4.753906 8.265625 -4.234375 C 7.929688 -3.722656 7.453125 -3.347656 6.828125 -3.109375 L 8.921875 0 Z M 2.796875 -4.21875 L 5 -4.21875 C 6.507812 -4.21875 7.265625 -4.84375 7.265625 -6.09375 C 7.265625 -7.300781 6.507812 -7.90625 5 -7.90625 L 2.796875 -7.90625 Z M 2.796875 -4.21875 "/></g></g></g><g fill="#152039" fill-opacity="1"><g transform="translate(190.499367, 255.59178)"><g><path d="M 9.140625 -9.3125 L 9.140625 -3.859375 C 9.140625 -2.640625 8.78125 -1.679688 8.0625 -0.984375 C 7.34375 -0.285156 6.351562 0.0625 5.09375 0.0625 C 3.832031 0.0625 2.835938 -0.285156 2.109375 -0.984375 C 1.390625 -1.679688 1.03125 -2.640625 1.03125 -3.859375 L 1.03125 -9.3125 L 2.609375 -9.3125 L 2.609375 -3.859375 C 2.609375 -3.078125 2.832031 -2.460938 3.28125 -2.015625 C 3.726562 -1.566406 4.335938 -1.34375 5.109375 -1.34375 C 5.867188 -1.34375 6.46875 -1.5625 6.90625 -2 C 7.351562 -2.445312 7.578125 -3.066406 7.578125 -3.859375 L 7.578125 -9.3125 Z M 9.140625 -9.3125 "/></g></g></g><g fill="#152039" fill-opacity="1"><g transform="translate(202.964008, 255.59178)"><g><path d="M 5.359375 -9.359375 C 6.015625 -9.359375 6.65625 -9.226562 7.28125 -8.96875 C 7.90625 -8.71875 8.441406 -8.367188 8.890625 -7.921875 L 7.96875 -6.78125 C 7.632812 -7.144531 7.234375 -7.429688 6.765625 -7.640625 C 6.304688 -7.847656 5.84375 -7.953125 5.375 -7.953125 C 4.445312 -7.953125 3.660156 -7.632812 3.015625 -7 C 2.367188 -6.375 2.046875 -5.601562 2.046875 -4.6875 C 2.046875 -3.757812 2.367188 -2.976562 3.015625 -2.34375 C 3.660156 -1.707031 4.445312 -1.390625 5.375 -1.390625 C 6.34375 -1.390625 7.207031 -1.757812 7.96875 -2.5 L 8.90625 -1.46875 C 8.425781 -1 7.863281 -0.625 7.21875 -0.34375 C 6.582031 -0.0703125 5.941406 0.0625 5.296875 0.0625 C 3.929688 0.0625 2.78125 -0.390625 1.84375 -1.296875 C 0.914062 -2.203125 0.453125 -3.328125 0.453125 -4.671875 C 0.453125 -5.992188 0.921875 -7.101562 1.859375 -8 C 2.804688 -8.90625 3.972656 -9.359375 5.359375 -9.359375 Z M 5.359375 -9.359375 "/></g></g></g><g fill="#152039" fill-opacity="1"><g transform="translate(214.537497, 255.59178)"><g><path d="M 7.59375 -7.90625 L 4.625 -7.90625 L 4.625 0 L 3.0625 0 L 3.0625 -7.90625 L 0.125 -7.90625 L 0.125 -9.3125 L 7.59375 -9.3125 Z M 7.59375 -7.90625 "/></g></g></g><g fill="#152039" fill-opacity="1"><g transform="translate(224.541504, 255.59178)"><g><path d="M 2.796875 0 L 1.21875 0 L 1.21875 -9.3125 L 2.796875 -9.3125 Z M 2.796875 0 "/></g></g></g><g fill="#152039" fill-opacity="1"><g transform="translate(230.861217, 255.59178)"><g><path d="M 1.875 -8 C 2.820312 -8.90625 3.992188 -9.359375 5.390625 -9.359375 C 6.785156 -9.359375 7.957031 -8.90625 8.90625 -8 C 9.851562 -7.101562 10.328125 -5.988281 10.328125 -4.65625 C 10.328125 -3.320312 9.851562 -2.203125 8.90625 -1.296875 C 7.957031 -0.390625 6.785156 0.0625 5.390625 0.0625 C 3.992188 0.0625 2.820312 -0.390625 1.875 -1.296875 C 0.925781 -2.203125 0.453125 -3.320312 0.453125 -4.65625 C 0.453125 -5.988281 0.925781 -7.101562 1.875 -8 Z M 5.40625 -7.953125 C 4.476562 -7.953125 3.6875 -7.632812 3.03125 -7 C 2.375 -6.363281 2.046875 -5.582031 2.046875 -4.65625 C 2.046875 -3.738281 2.375 -2.957031 3.03125 -2.3125 C 3.695312 -1.664062 4.488281 -1.34375 5.40625 -1.34375 C 6.320312 -1.34375 7.101562 -1.664062 7.75 -2.3125 C 8.394531 -2.957031 8.71875 -3.738281 8.71875 -4.65625 C 8.71875 -5.582031 8.394531 -6.363281 7.75 -7 C 7.101562 -7.632812 6.320312 -7.953125 5.40625 -7.953125 Z M 5.40625 -7.953125 "/></g></g></g><g fill="#152039" fill-opacity="1"><g transform="translate(243.937693, 255.59178)"><g><path d="M 9.3125 0 L 7.765625 0 L 2.796875 -6.6875 L 2.796875 0 L 1.21875 0 L 1.21875 -9.3125 L 2.765625 -9.3125 L 7.765625 -2.625 L 7.765625 -9.3125 L 9.3125 -9.3125 Z M 9.3125 0 "/></g></g></g></svg>